<svg width="500" height="500" viewBox="0 0 500 500" fill="none" xmlns="http://www.w3.org/2000/svg">
<g clip-path="url(#clip0_1605_2819)">
<path d="M250 500C388.071 500 500 388.071 500 250C500 111.929 388.071 0 250 0C111.929 0 0 111.929 0 250C0 388.071 111.929 500 250 500Z" fill="#202123"/>
<path fill-rule="evenodd" clip-rule="evenodd" d="M425 250.028L406.75 268.281L337.5 199.02V162.514L425 250.028ZM250 75L231.75 93.2529L300.988 162.489H337.5L250 75ZM210.825 114.256L192.575 132.509L222.625 162.564H259.15L210.825 114.256ZM337.5 240.951V277.47L367.575 307.524L385.825 289.271L337.5 240.951ZM327.05 308.862L337.5 298.41H201.7V162.514L191.25 172.99L171.65 153.387L153.325 171.665L172.925 191.243L162.45 201.72V222.723L132.425 192.669L114.15 210.934L162.45 259.267V300.948L93.275 231.775L75 250.028L250 425.055L268.275 406.802L199.038 337.542H240.875L289.2 385.874L307.475 367.596L277.413 337.542H298.412L308.887 327.09L328.475 346.693L346.737 328.415L327.05 308.862Z" fill="#FF6363"/>
</g>
<defs>
<clipPath id="clip0_1605_2819">
<rect width="500" height="500" fill="white"/>
</clipPath>
</defs>
</svg>
