<svg width="632" height="542" viewBox="0 0 632 542" fill="none" xmlns="http://www.w3.org/2000/svg">
<mask id="path-1-outside-1" maskUnits="userSpaceOnUse" x="0" y="0.316711" width="632" height="541" fill="black">
<rect fill="white" y="0.316711" width="632" height="541"/>
<path fill-rule="evenodd" clip-rule="evenodd" d="M29.5045 387.636C42.2727 402.264 110.785 459.438 220.326 506.756C250.857 519.944 293.304 525.123 316.018 525.188C316.018 349.254 316.018 72.1568 316.018 72.1568L266.616 72.2335C266.616 72.2335 98.3564 -15.0921 56.0832 28.5707C13.81 72.2335 5.01435 359.581 29.5045 387.636Z"/>
<path d="M411.355 506.727C520.896 459.41 589.408 409.845 602.177 395.218C626.667 367.162 617.871 72.2051 575.598 28.5423C533.325 -15.1205 365.065 72.2051 365.065 72.2051L316.018 72.1568C316.018 72.1568 316.018 349.254 316.018 525.188C338.733 525.253 380.824 519.915 411.355 506.727Z"/>
</mask>
<path fill-rule="evenodd" clip-rule="evenodd" d="M29.5045 387.636C42.2727 402.264 110.785 459.438 220.326 506.756C250.857 519.944 293.304 525.123 316.018 525.188C316.018 349.254 316.018 72.1568 316.018 72.1568L266.616 72.2335C266.616 72.2335 98.3564 -15.0921 56.0832 28.5707C13.81 72.2335 5.01435 359.581 29.5045 387.636Z" fill="white"/>
<path d="M411.355 506.727C520.896 459.41 589.408 409.845 602.177 395.218C626.667 367.162 617.871 72.2051 575.598 28.5423C533.325 -15.1205 365.065 72.2051 365.065 72.2051L316.018 72.1568C316.018 72.1568 316.018 349.254 316.018 525.188C338.733 525.253 380.824 519.915 411.355 506.727Z" fill="white"/>
<path d="M324.018 525.188C324.018 437.221 324.018 323.963 324.018 232.697C324.018 187.064 324.018 146.929 324.018 118.202C324.018 103.839 324.018 92.3275 324.018 84.407C324.018 80.4467 324.018 77.3842 324.018 75.3117C324.018 74.2726 324.018 73.4896 324.018 72.9571C324.018 72.697 324.018 72.4875 324.018 72.3583C324.018 72.3007 324.018 72.2318 324.018 72.2074C324.018 72.1402 324.018 72.2283 324.018 72.1695C324.018 72.1653 324.018 72.1621 324.018 72.16C324.018 72.1579 324.018 72.1568 316.018 72.1568C308.018 72.1568 308.018 72.1579 308.018 72.16C308.018 72.1621 308.018 72.1653 308.018 72.1695C308.018 72.2283 308.018 72.1402 308.018 72.2074C308.018 72.2318 308.018 72.3006 308.018 72.3583C308.018 72.4969 308.018 72.6876 308.018 72.9571C308.018 73.485 308.018 74.2772 308.018 75.3117C308.018 77.3842 308.018 80.4467 308.018 84.407C308.018 92.3275 308.018 103.839 308.018 118.202C308.018 146.929 308.018 187.064 308.018 232.697C308.018 323.963 308.018 437.221 308.018 525.188L324.018 525.188ZM29.5045 387.636L17.4508 398.158L17.4508 398.158L29.5045 387.636ZM220.326 506.756L213.982 521.444L220.326 506.756ZM316.018 72.1568L316.034 56.1568L316.014 56.1568L315.993 56.1569L316.018 72.1568ZM266.616 72.2335L259.246 86.4348L262.723 88.2395L266.641 88.2335L266.616 72.2335ZM602.177 395.218L590.123 384.696L590.123 384.696L602.177 395.218ZM411.355 506.727L405.01 492.039L405.01 492.039L411.355 506.727ZM365.065 72.2051L365.049 88.2051L368.962 88.2089L372.436 86.4064L365.065 72.2051ZM17.4508 398.158C25.187 407.021 46.8454 425.882 79.6305 448.169C112.794 470.714 158.19 497.344 213.982 521.444L226.671 492.067C172.922 468.85 129.291 443.235 97.6207 421.705C65.5722 399.919 46.5902 382.879 41.5582 377.115L17.4508 398.158ZM213.982 521.444C247.158 535.775 291.944 541.119 315.972 541.188L316.064 509.188C294.663 509.127 254.556 504.112 226.671 492.067L213.982 521.444ZM315.993 56.1569L266.591 56.2335L266.641 88.2335L316.043 88.1568L315.993 56.1569ZM266.616 72.2335C273.986 58.0322 273.984 58.0307 273.98 58.029C273.978 58.0279 273.974 58.0258 273.97 58.0237C273.962 58.0196 273.952 58.0142 273.938 58.0074C273.912 57.9938 273.876 57.9751 273.83 57.9511C273.737 57.9033 273.604 57.8349 273.432 57.7467C273.088 57.5704 272.588 57.3152 271.941 56.9876C270.647 56.3326 268.763 55.3882 266.363 54.2079C261.563 51.8482 254.686 48.541 246.311 44.7166C229.596 37.0844 206.745 27.3152 182.431 18.9071C158.283 10.5566 131.894 3.26544 108.314 1.04335C85.8178 -1.07659 60.6056 0.897329 44.588 17.4414L67.5783 39.7C72.6974 34.4127 84.3701 30.9288 105.312 32.9022C125.17 34.7735 148.772 41.127 171.973 49.15C195.008 57.1155 216.864 66.4487 233.019 73.8255C241.078 77.5057 247.677 80.6797 252.244 82.925C254.527 84.0473 256.3 84.9364 257.491 85.5392C258.086 85.8406 258.536 86.0704 258.832 86.2219C258.98 86.2977 259.089 86.3538 259.158 86.3896C259.193 86.4075 259.217 86.4202 259.232 86.4278C259.239 86.4316 259.244 86.4341 259.246 86.4353C259.248 86.4358 259.247 86.4357 259.248 86.436C259.247 86.4356 259.246 86.4348 266.616 72.2335ZM44.588 17.4414C36.8276 25.457 31.1417 37.4223 26.7005 50.0916C22.1058 63.1987 18.2127 78.9541 14.9351 96.1548C8.37301 130.593 4.01676 172.236 1.7815 213.082C-0.454792 253.947 -0.594317 294.5 1.4117 326.827C2.41234 342.953 3.96749 357.386 6.16297 368.932C7.25912 374.697 8.5743 380.065 10.1892 384.712C11.7045 389.073 13.92 394.113 17.4508 398.158L41.5582 377.115C42.0278 377.653 41.4421 377.16 40.4163 374.208C39.4901 371.543 38.5243 367.817 37.5997 362.955C35.7538 353.247 34.3084 340.287 33.3503 324.845C31.4386 294.04 31.5482 254.767 33.7337 214.83C35.9202 174.875 40.1585 134.741 46.3696 102.144C49.4786 85.8279 53.0168 71.7517 56.8988 60.6776C60.9343 49.1656 64.7705 42.6001 67.5783 39.7L44.588 17.4414ZM590.123 384.696C588.104 387.009 582.577 392.014 572.782 399.355C563.285 406.473 550.495 415.258 534.614 425.122C502.86 444.845 459.047 468.697 405.01 492.039L417.699 521.416C473.204 497.44 518.417 472.852 551.497 452.305C568.032 442.035 581.611 432.728 591.975 424.961C602.04 417.416 609.865 410.74 614.23 405.74L590.123 384.696ZM405.01 492.039C377.07 504.108 337.306 509.249 316.064 509.188L315.972 541.188C340.16 541.257 384.578 535.723 417.699 521.416L405.01 492.039ZM316.003 88.1568L365.049 88.2051L365.081 56.2051L316.034 56.1568L316.003 88.1568ZM365.065 72.2051C372.436 86.4064 372.434 86.4072 372.433 86.4076C372.434 86.4073 372.434 86.4074 372.435 86.4068C372.437 86.4057 372.442 86.4032 372.449 86.3994C372.464 86.3918 372.488 86.379 372.523 86.3612C372.592 86.3254 372.701 86.2692 372.849 86.1935C373.145 86.042 373.595 85.8122 374.19 85.5108C375.381 84.9079 377.154 84.0189 379.437 82.8966C384.004 80.6513 390.603 77.4773 398.662 73.7971C414.817 66.4203 436.673 57.0871 459.708 49.1215C482.909 41.0985 506.512 34.7451 526.369 32.8738C547.311 30.9003 558.984 34.3843 564.103 39.6716L587.093 17.413C571.075 0.868912 545.863 -1.105 523.367 1.01494C499.787 3.23702 473.398 10.5282 449.25 18.8787C424.936 27.2867 402.085 37.056 385.37 44.6882C376.995 48.5126 370.118 51.8198 365.318 54.1795C362.918 55.3598 361.034 56.3042 359.74 56.9592C359.093 57.2867 358.593 57.542 358.249 57.7183C358.077 57.8064 357.944 57.8749 357.852 57.9227C357.805 57.9466 357.769 57.9654 357.743 57.979C357.73 57.9857 357.719 57.9912 357.711 57.9953C357.707 57.9974 357.703 57.9995 357.701 58.0005C357.698 58.0023 357.695 58.0038 365.065 72.2051ZM564.103 39.6716C566.863 42.5226 570.703 49.1409 574.755 60.8962C578.644 72.1833 582.188 86.5625 585.3 103.245C591.518 136.569 595.759 177.668 597.946 218.587C600.133 259.486 600.243 299.724 598.33 331.26C597.37 347.066 595.923 360.335 594.071 370.265C593.143 375.239 592.173 379.051 591.241 381.775C590.203 384.806 589.616 385.277 590.123 384.696L614.23 405.74C617.799 401.651 620.013 396.53 621.516 392.137C623.125 387.437 624.436 381.992 625.529 376.131C627.718 364.39 629.271 349.671 630.271 333.198C632.275 300.174 632.136 258.684 629.901 216.878C627.667 175.093 623.313 132.512 616.757 97.3757C613.483 79.8273 609.595 63.7804 605.008 50.4701C600.583 37.628 594.901 25.4777 587.093 17.413L564.103 39.6716Z" fill="white" mask="url(#path-1-outside-1)"/>
<path fill-rule="evenodd" clip-rule="evenodd" d="M602.495 394.901C589.727 409.528 521.214 459.093 411.673 506.411C381.143 519.598 339.051 524.936 316.337 524.871C293.622 524.806 251.175 519.627 220.645 506.439C111.104 459.122 42.591 401.947 29.8229 387.32C5.33271 359.264 14.1284 71.9168 56.4016 28.254C98.6748 -15.4088 266.934 71.9168 266.934 71.9168L316.337 71.8401L365.384 71.8884C365.384 71.8884 533.643 -15.4372 575.916 28.2256C618.189 71.8884 626.985 366.845 602.495 394.901ZM560.345 193.978C569.16 191.897 559.749 84.6686 530.221 67.1277C500.692 49.5868 416.482 95.883 419.271 106.327C422.06 116.771 551.53 196.058 560.345 193.978ZM102.102 67.1561C72.5733 84.697 63.163 191.925 71.9778 194.006C80.7926 196.087 210.262 116.8 213.052 106.356C215.841 95.9115 131.631 49.6153 102.102 67.1561ZM48.6786 380.641C36.3973 359.843 38.9162 325.546 42.3139 323.102C50.4191 317.272 144.245 264.938 194.275 237.032L194.276 237.031C209.658 228.451 220.901 222.181 224.238 220.281C238.433 212.202 260.105 230.55 266.936 245.168C273.767 259.785 266.57 301.882 266.57 301.882C266.57 301.882 237.409 269.249 224.238 276.745C211.068 284.241 96.3164 349.892 84.0359 357.284C71.7553 364.677 84.0359 404.521 84.0359 404.521C84.0359 404.521 55.8884 392.85 48.6786 380.641ZM455.879 421.24C455.803 374.377 385.976 339.973 316.072 339.973C246.168 339.973 176.188 374.377 176.264 421.24C176.341 468.102 246.348 502.507 316.338 502.507C386.328 502.507 455.956 468.102 455.879 421.24ZM317.378 463.242C293.125 463.242 256.172 425.313 268.992 411.717C281.812 398.12 354.082 399.066 365.962 411.717C377.841 424.367 341.63 463.242 317.378 463.242ZM583.642 380.613C595.924 359.815 593.405 325.518 590.007 323.074C581.902 317.244 488.077 264.91 438.046 237.004L438.045 237.003C422.663 228.423 411.42 222.152 408.082 220.252C393.888 212.173 372.215 230.522 365.385 245.139C358.554 259.757 365.75 301.854 365.75 301.854C365.75 301.854 394.911 269.221 408.082 276.717C421.253 284.212 536.004 349.863 548.285 357.256C560.565 364.648 548.285 404.493 548.285 404.493C548.285 404.493 576.432 392.822 583.642 380.613Z" fill="url(#paint0_linear)"/>
<defs>
<linearGradient id="paint0_linear" x1="959.036" y1="425.681" x2="509.856" y2="6.95672" gradientUnits="userSpaceOnUse">
<stop stop-color="#00CDFF"/>
<stop offset="1" stop-color="#009FFF"/>
</linearGradient>
</defs>
</svg>
