<?xml version="1.0" encoding="UTF-8" standalone="no"?>
<!-- Created with Inkscape (http://www.inkscape.org/) -->

<svg
   width="270.93402mm"
   height="270.93332mm"
   viewBox="0 0 270.93402 270.93332"
   version="1.1"
   id="svg5"
   inkscape:version="1.1.2 (b8e25be833, 2022-02-05)"
   sodipodi:docname="Wealthsimple 2015 Icon.svg"
   xmlns:inkscape="http://www.inkscape.org/namespaces/inkscape"
   xmlns:sodipodi="http://sodipodi.sourceforge.net/DTD/sodipodi-0.dtd"
   xmlns="http://www.w3.org/2000/svg"
   xmlns:svg="http://www.w3.org/2000/svg">
  <sodipodi:namedview
     id="namedview7"
     pagecolor="#ffffff"
     bordercolor="#666666"
     borderopacity="1.0"
     inkscape:pageshadow="2"
     inkscape:pageopacity="0.0"
     inkscape:pagecheckerboard="0"
     inkscape:document-units="mm"
     showgrid="false"
     inkscape:zoom="0.64052329"
     inkscape:cx="391.86709"
     inkscape:cy="446.50992"
     inkscape:window-width="1920"
     inkscape:window-height="1017"
     inkscape:window-x="-8"
     inkscape:window-y="-8"
     inkscape:window-maximized="1"
     inkscape:current-layer="g836" />
  <defs
     id="defs2" />
  <g
     inkscape:label="Layer 1"
     inkscape:groupmode="layer"
     id="layer1"
     transform="translate(-1.2603951,35.9159)">
    <g
       id="g836"
       transform="matrix(0.26458333,0,0,0.26458333,1.2607342,-35.9159)">
      <ellipse
         cx="512"
         cy="512"
         style="fill:#54575a;fill-opacity:1"
         id="circle824"
         rx="512.00128"
         ry="512" />
      <path
         d="m 670.3,351.5 v 4.3 c 12.3,2.9 23.1,10.3 30.4,20.7 7.5,13.1 11.1,28.1 10.3,43.2 0,19.8 -3,39.6 -9,58.5 -7,22.1 -15.8,43.6 -26.2,64.3 l -12.2,26.8 -60.1,-145.9 c -2.9,-6.9 -5.4,-14.1 -7.4,-21.4 -1.6,-5.6 -2.5,-11.3 -2.9,-17 -0.3,-7.3 2.3,-14.4 7.2,-19.8 4.9,-5.4 11.8,-8.5 19.1,-8.8 v -4.3 H 438.3 v 4.3 c 6.2,1.1 12.1,3.2 17.7,6.1 5.7,3.8 10.4,8.8 14,14.6 6.3,9.8 11.6,20.2 16.1,31 L 514.4,475.6 463.3,576.7 387.1,400 c -2,-3.5 -3.6,-7.2 -4.8,-11.1 -0.6,-2.8 -1,-5.6 -1.1,-8.5 0,-5.4 1.9,-10.6 5.5,-14.6 4.4,-4.7 9.9,-8.3 16.1,-10.3 v -4 H 217.9 v 4.3 c 15,4.6 28.6,12.9 39.5,24.3 14.3,16.4 26,35 34.7,54.9 l 117,259.9 h 4.8 L 519.3,486.1 609.4,695 h 4.8 L 721.4,463.7 c 11.4,-26.3 25.7,-51.3 42.7,-74.4 11.1,-14.5 25.5,-26.1 41.9,-34.1 V 351 H 670.3 Z"
         style="fill:#ffffff"
         id="path826" />
    </g>
  </g>
</svg>
